<svg xmlns="http://www.w3.org/2000/svg" version="1.1" xmlns:xlink="http://www.w3.org/1999/xlink" xmlns:svgjs="http://svgjs.dev/svgjs" width="1500" height="1500" viewBox="0 0 1500 1500"><rect width="1500" height="1500" fill="#ffffff"></rect><g transform="matrix(0.6666666666666666,0,0,0.6666666666666666,249.39393939393943,544.7558213242875)"><svg viewBox="0 0 396 162" data-background-color="#ffffff" preserveAspectRatio="xMidYMid meet" height="613" width="1500" xmlns="http://www.w3.org/2000/svg" xmlns:xlink="http://www.w3.org/1999/xlink"><g id="tight-bounds" transform="matrix(1,0,0,1,0.2400000000000091,0.36106919771312107)"><svg viewBox="0 0 395.52 161.27786160457376" height="161.27786160457376" width="395.52"><g><svg viewBox="0 0 670.8096005251282 273.5303851044474" height="161.27786160457376" width="395.52"><g transform="matrix(1,0,0,1,275.2896005251282,71.40861135564252)"><svg viewBox="0 0 395.52 130.71316239316238" height="130.71316239316238" width="395.52"><g id="textblocktransform"><svg viewBox="0 0 395.52 130.71316239316238" height="130.71316239316238" width="395.52" id="textblock"><g><svg viewBox="0 0 395.52 130.71316239316238" height="130.71316239316238" width="395.52"><g transform="matrix(1,0,0,1,0,0)"><svg width="395.52" viewBox="3.85 -31.15 122.84 40.599999999999994" height="130.71316239316238" data-palette-color="#000000"><path d="M3.85-3.4L3.85-20.25 10.2-20.25 10.2-0.35Q9.8-0.25 9-0.08 8.2 0.1 7.3 0.1L7.3 0.1Q5.7 0.1 4.78-0.85 3.85-1.8 3.85-3.4L3.85-3.4ZM10.2-29.9L10.2-10.15 3.85-10.15 3.85-26.9Q3.85-28.5 4.78-29.43 5.7-30.35 7.3-30.35L7.3-30.35Q8.2-30.35 9-30.2 9.8-30.05 10.2-29.9L10.2-29.9ZM20.75-12.9L7.3-12.9 7.3-18.1 22.35-18.1Q22.65-17.7 22.85-17.05 23.05-16.4 23.05-15.6L23.05-15.6Q23.05-14.25 22.45-13.58 21.85-12.9 20.75-12.9L20.75-12.9ZM22.45 0.1L7.3 0.1 7.3-5.15 24.05-5.15Q24.3-4.75 24.53-4.08 24.75-3.4 24.75-2.6L24.75-2.6Q24.75-1.25 24.15-0.58 23.55 0.1 22.45 0.1L22.45 0.1ZM22.25-25.15L7.3-25.15 7.3-30.35 23.85-30.35Q24.1-29.95 24.33-29.3 24.55-28.65 24.55-27.85L24.55-27.85Q24.55-26.55 23.93-25.85 23.3-25.15 22.25-25.15L22.25-25.15ZM37.6-14.3L37.6-14.3 38.8-14.5Q40.65-17 42.4-19.25 44.15-21.5 45.9-24L45.9-24Q46.15-24.05 46.3-24.05 46.45-24.05 46.65-24.05L46.65-24.05Q48.35-24.05 49.35-23.33 50.35-22.6 50.35-21.35L50.35-21.35Q50.35-20.45 49.92-19.68 49.5-18.9 48.4-17.65L48.4-17.65Q46.95-15.9 45.42-14.15 43.9-12.4 42.45-10.7L42.45-10.7 40.55-9.6Q38.75-7.15 36.95-4.65 35.15-2.15 33.4 0.35L33.4 0.35Q33.25 0.35 32.95 0.35 32.65 0.35 32.5 0.35L32.5 0.35Q30.65 0.35 29.67-0.43 28.7-1.2 28.7-2.4L28.7-2.4Q28.7-3.2 29.1-3.9 29.5-4.6 30.5-5.8L30.5-5.8Q32.25-7.95 34.07-10.08 35.9-12.2 37.6-14.3ZM41.35-13.9L41.35-13.9 42.8-13.05Q44.8-10.45 46.8-7.88 48.8-5.3 50.75-2.7L50.75-2.7Q50.6-1.25 49.67-0.4 48.75 0.45 47.45 0.45L47.45 0.45Q46.1 0.4 45.22-0.35 44.35-1.1 43.5-2.3L43.5-2.3Q42.15-4.2 40.72-6.2 39.3-8.2 37.95-10.1L37.95-10.1 36.75-11Q34.65-13.55 32.67-15.95 30.7-18.35 28.65-20.85L28.65-20.85Q28.95-22.3 29.85-23.18 30.75-24.05 32-24.05L32-24.05Q33.25-24.05 33.97-23.45 34.7-22.85 35.5-21.75L35.5-21.75Q36.9-19.9 38.35-17.88 39.8-15.85 41.35-13.9ZM64.84-4.55L64.84-4.55Q67.75-4.55 69.09-5.7 70.45-6.85 70.45-8.5L70.45-8.5Q70.45-10 69.37-10.95 68.3-11.9 66.2-12.55L66.2-12.55 63-13.55Q60.5-14.4 58.6-15.48 56.7-16.55 55.65-18.2 54.6-19.85 54.6-22.35L54.6-22.35Q54.6-26.4 57.65-28.78 60.7-31.15 66-31.15L66-31.15Q68.8-31.15 71-30.6 73.2-30.05 74.45-29.03 75.7-28 75.7-26.6L75.7-26.6Q75.7-25.65 75.22-24.9 74.75-24.15 74.05-23.7L74.05-23.7Q72.84-24.5 70.87-25.15 68.9-25.8 66.55-25.8L66.55-25.8Q64-25.8 62.62-24.85 61.25-23.9 61.25-22.35L61.25-22.35Q61.25-21.15 62.2-20.35 63.15-19.55 65.09-19L65.09-19 67.95-18.1Q72.34-16.8 74.72-14.55 77.09-12.3 77.09-8.45L77.09-8.45Q77.09-4.35 73.97-1.78 70.84 0.8 65 0.8L65 0.8Q61.95 0.8 59.57 0.13 57.2-0.55 55.85-1.73 54.5-2.9 54.5-4.3L54.5-4.3Q54.5-5.5 55.17-6.3 55.85-7.1 56.75-7.5L56.75-7.5Q58-6.4 60.07-5.48 62.15-4.55 64.84-4.55ZM86.39-5.7L86.39-5.7Q85.59-7.35 84.57-9.83 83.54-12.3 82.44-15.53 81.34-18.75 80.24-22.75L80.24-22.75Q80.74-23.35 81.64-23.78 82.54-24.2 83.59-24.2L83.59-24.2Q84.89-24.2 85.74-23.6 86.59-23 87.04-21.45L87.04-21.45Q88.29-17.65 89.62-13.88 90.94-10.1 92.39-6.2L92.39-6.2 92.59-6.2Q93.49-8.4 94.47-11.33 95.44-14.25 96.29-17.43 97.14-20.6 97.69-23.5L97.69-23.5Q98.29-23.8 98.97-24 99.64-24.2 100.39-24.2L100.39-24.2Q101.74-24.2 102.67-23.6 103.59-23 103.59-21.65L103.59-21.65Q103.59-20.45 103.17-18.45 102.74-16.45 102.02-14.05 101.29-11.65 100.32-9.08 99.34-6.5 98.27-4.08 97.19-1.65 96.09 0.3L96.09 0.3Q93.54 4.85 91.39 7.15 89.24 9.45 87.19 9.45L87.19 9.45Q85.59 9.45 84.59 8.53 83.59 7.6 83.39 6.2L83.39 6.2Q84.44 5.25 85.67 3.95 86.89 2.65 88.04 1.15 89.19-0.35 89.99-1.7L89.99-1.7Q89.14-1.95 88.27-2.75 87.39-3.55 86.39-5.7ZM126.69-6.7L126.69-6.7Q126.69-3.2 124.07-1.23 121.44 0.75 116.44 0.75L116.44 0.75Q112.39 0.75 109.82-0.45 107.24-1.65 107.24-3.65L107.24-3.65Q107.24-4.6 107.67-5.3 108.09-6 108.79-6.45L108.79-6.45Q110.19-5.55 112.02-4.85 113.84-4.15 116.24-4.15L116.24-4.15Q120.39-4.15 120.39-6.7L120.39-6.7Q120.39-7.75 119.67-8.4 118.94-9.05 117.39-9.4L117.39-9.4 114.59-10.05Q110.89-10.85 109.12-12.58 107.34-14.3 107.34-17.15L107.34-17.15Q107.34-20.4 109.94-22.43 112.54-24.45 117.24-24.45L117.24-24.45Q119.64-24.45 121.52-23.98 123.39-23.5 124.49-22.6 125.59-21.7 125.59-20.45L125.59-20.45Q125.59-19.55 125.22-18.88 124.84-18.2 124.24-17.8L124.24-17.8Q123.64-18.15 122.59-18.55 121.54-18.95 120.24-19.25 118.94-19.55 117.69-19.55L117.69-19.55Q115.74-19.55 114.64-18.95 113.54-18.35 113.54-17.15L113.54-17.15Q113.54-16.35 114.17-15.78 114.79-15.2 116.34-14.85L116.34-14.85 118.79-14.25Q122.94-13.3 124.82-11.48 126.69-9.65 126.69-6.7Z" opacity="1" transform="matrix(1,0,0,1,0,0)" fill="#000000" class="wordmark-text-0" data-fill-palette-color="primary" id="text-0"></path></svg></g></svg></g></svg></g></svg></g><g><svg viewBox="0 0 244.43135999999998 273.5303851044474" height="273.5303851044474" width="244.43135999999998"><g><svg xmlns="http://www.w3.org/2000/svg" xmlns:xlink="http://www.w3.org/1999/xlink" version="1.1" x="0" y="0" viewBox="9.777875243553465 4.991565994520428 80.44288268737517 90.01943400547957" enable-background="new 0 0 100 100" xml:space="preserve" height="273.5303851044474" width="244.43135999999998" class="icon-icon-0" data-fill-palette-color="accent" id="icon-0"><g fill="#cdcdcd" data-fill-palette-color="accent"><path fill-rule="evenodd" clip-rule="evenodd" d="M86.414 8.71C87.28 8.977 87.947 9.626 88.414 10.659 89.348 12.76 89.914 14.576 90.114 16.109 90.381 18.076 90.147 19.942 89.414 21.71 89.181 22.276 88.547 22.71 87.514 23.01 86.514 23.243 85.581 23.26 84.714 23.06 84.014 22.727 83.497 22.477 83.164 22.31 82.53 22.077 81.964 22.16 81.464 22.56 80.964 22.994 80.697 23.577 80.664 24.31L80.813 26.26C81.247 32.26 81.48 39.393 81.513 47.659 81.513 57.159 81.546 64.276 81.614 69.01 81.647 70.977 81.447 73.326 81.013 76.06 80.48 79.193 80.114 81.527 79.913 83.06 79.713 84.327 78.963 85.343 77.663 86.11 70.43 90.443 63.646 92.377 57.312 91.91 56.712 91.877 55.062 91.86 52.363 91.86 49.863 92.16 46.63 92.176 42.663 91.91 37.863 91.577 34.746 91.427 33.312 91.461A10.04 10.04 0 0 1 27.562 89.91C26.129 89.077 24.58 87.761 22.913 85.961 19.979 82.794 18.097 79.728 17.263 76.761 17.163 76.427 16.73 75.91 15.963 75.211 15.163 74.644 14.913 74.061 15.213 73.461 15.613 72.761 16.18 72.41 16.913 72.41 18.08 72.477 19.597 72.36 21.463 72.06 23.897 71.66 25.43 71.426 26.063 71.36 27.197 71.327 27.914 71.143 28.213 70.81 28.446 70.51 28.413 69.86 28.113 68.86 27.58 67.093 27.062 64.727 26.562 61.76 25.929 57.993 25.512 55.61 25.312 54.61 23.413 45.41 22.795 36.527 23.462 27.961 23.929 22.461 24.945 18.094 26.512 14.86 27.745 12.36 29.295 10.827 31.162 10.26 31.561 10.159 33.795 9.277 37.862 7.61 40.595 6.544 42.945 5.961 44.912 5.86 45.778 5.794 47.811 5.711 51.012 5.61 53.646 5.51 55.712 5.36 57.212 5.16 59.679 4.86 63.028 4.961 67.262 5.461 72.062 6.027 75.412 6.277 77.312 6.211 78.646 6.177 80.196 6.478 81.962 7.11 82.964 7.442 84.447 7.977 86.414 8.71M72.464 11.81C72.464 12.61 71.964 13.01 70.964 13.01L67.864 12.56C62.464 11.96 58.381 11.71 55.614 11.81 54.513 11.81 53.947 11.543 53.914 11.01 53.848 10.21 54.431 9.81 55.664 9.81L68.164 10.71C69.197 10.676 70.164 10.626 71.063 10.56 71.997 10.56 72.464 10.977 72.464 11.81M78.813 11.909C79.147 11.909 80.03 12.01 81.463 12.21 82.296 12.21 82.613 12.576 82.413 13.31S81.796 14.393 81.163 14.36C79.696 14.093 78.812 13.91 78.513 13.81 77.48 13.51 76.513 12.994 75.614 12.26 76.647 11.96 77.714 11.843 78.813 11.909M87.864 18.71C88.164 15.743 87.597 13.676 86.164 12.51 82.73 9.643 79.714 8.26 77.114 8.36 74.147 8.461 70.53 8.11 66.263 7.31 64.73 7.077 63.313 7.027 62.013 7.16 59.614 7.527 56.88 7.66 53.813 7.56 52.347 7.494 50.414 7.61 48.013 7.91 45.046 8.31 43.13 8.527 42.263 8.56 40.23 8.76 38.796 9.31 37.963 10.21 39.696 12.376 40.847 15.276 41.413 18.909 41.613 20.51 42.33 21.176 43.562 20.909 45.096 20.609 46.996 20.46 49.262 20.46H54.962C61.695 20.359 71.812 20.359 85.312 20.46 86.881 20.46 87.73 19.876 87.864 18.71M59.063 48.31C62.897 47.843 65.813 47.926 67.813 48.56L59.313 50.16C58.48 50.261 58.013 50.077 57.914 49.61 57.714 48.909 58.098 48.477 59.063 48.31M58.914 38.06C58.98 38.56 58.813 39.06 58.414 39.56 58.28 39.727 57.563 40.327 56.264 41.36 50.131 45.86 46.714 48.36 46.014 48.86 44.615 49.926 43.914 50.81 43.914 51.51 43.98 52.143 44.747 52.876 46.214 53.71 48.78 55.109 50.464 56.227 51.264 57.06 53.264 59.16 53.431 61.244 51.764 63.31 51.631 63.51 50.714 64.46 49.014 66.16 48.281 66.794 47.714 67.261 47.314 67.56 46.648 68.093 46.264 68.61 46.165 69.11 45.965 69.843 46.231 70.477 46.965 71.01 47.399 71.31 48.065 71.727 48.965 72.26 50.332 73.56 50.965 75.043 50.865 76.71 50.764 78.343 50.014 79.793 48.615 81.06 46.615 82.693 45.132 83.926 44.165 84.76 42.398 86.227 40.965 87.626 39.865 88.96 41.731 89.56 43.382 89.46 44.814 88.659A29.6 29.6 0 0 0 49.165 85.659C51.132 83.96 52.832 82.892 54.265 82.46 53.632 83.493 52.532 84.71 50.965 86.109 49.132 87.609 47.915 88.743 47.315 89.509 49.315 89.776 50.583 89.842 51.116 89.709 51.649 89.608 52.633 89.042 54.065 88.009 55.333 87.075 58.232 85.209 62.765 82.408 62.332 83.575 61.349 84.759 59.815 85.959 57.982 87.358 56.833 88.459 56.366 89.259L58.065 89.408C58.932 89.375 60.199 89.408 61.866 89.509 62.732 89.542 63.232 89.209 63.366 88.509 63.466 87.675 63.583 87.209 63.716 87.109 64.282 86.776 65.133 86.159 66.266 85.259 67.299 84.526 68.299 84.042 69.266 83.809 69.066 84.642 68.483 85.476 67.516 86.309 66.383 87.209 65.716 87.942 65.516 88.509 66.65 88.609 67.85 88.375 69.117 87.809 69.85 87.509 70.933 87.009 72.367 86.309 75.467 85.142 77.316 82.875 77.917 79.509 78.95 74.042 79.467 69.726 79.467 66.559L79.267 32.609C79.267 31.609 79.134 29.925 78.868 27.559 78.635 25.459 78.567 23.809 78.668 22.609 70.835 22.175 60.118 22.21 46.518 22.71L43.268 22.859C42.001 22.993 41.001 23.476 40.268 24.309 39.702 24.842 39.235 24.743 38.869 24.009 38.502 23.342 38.052 23.009 37.518 23.009 37.218 23.042 36.702 23.276 35.968 23.709 34.868 24.408 33.518 25.441 31.918 26.809 29.951 28.442 28.618 29.509 27.918 30.009 26.651 30.908 25.835 31.959 25.468 33.158 25.168 34.259 25.251 35.641 25.718 37.308A494 494 0 0 0 32.218 32.158C34.718 30.225 36.985 28.742 39.018 27.709 38.818 28.309 38.468 28.875 37.968 29.408 37.902 29.509 37.435 29.959 36.568 30.759L27.119 38.709 25.919 39.559C25.318 40.125 25.302 40.759 25.869 41.459 26.235 41.892 26.752 41.842 27.419 41.309L33.219 36.659C33.785 36.26 34.119 36.043 34.219 36.01 34.653 35.743 35.186 35.693 35.819 35.86 35.186 36.393 33.736 37.794 31.469 40.06 29.802 41.693 28.353 42.876 27.119 43.61 26.386 44.044 26.068 44.56 26.169 45.16 26.202 46.094 26.235 46.81 26.269 47.31 26.37 48.143 26.653 48.86 27.12 49.46 29.753 47.526 31.37 46.393 31.97 46.06 32.503 45.76 33.27 45.21 34.27 44.41 35.27 43.777 36.204 43.427 37.07 43.36 36.77 44.06 36.287 44.676 35.621 45.211 34.82 45.811 34.254 46.261 33.921 46.561L27.971 51.061C26.804 51.961 26.621 52.877 27.421 53.811 27.754 54.311 28.171 54.427 28.671 54.161 28.904 54.061 29.271 53.811 29.771 53.411 30.304 53.144 31.405 52.361 33.071 51.061 34.505 49.995 35.839 49.177 37.071 48.611 34.804 51.478 32.388 53.745 29.821 55.411 28.988 55.978 28.455 56.545 28.221 57.111 27.954 57.677 27.954 58.427 28.221 59.361 28.454 60.328 28.721 60.894 29.021 61.061 29.321 61.161 29.888 60.927 30.721 60.361L39.021 54.911C39.488 54.578 39.754 54.378 39.821 54.311 40.221 54.211 40.605 54.361 40.971 54.761L30.971 62.461C29.971 63.193 29.421 63.728 29.321 64.061 29.288 64.427 29.589 65.294 30.221 66.661 31.254 66.428 32.338 65.828 33.471 64.861 35.071 63.495 36.021 62.745 36.321 62.611 36.922 62.212 37.839 61.545 39.071 60.611 40.138 59.911 41.172 59.462 42.172 59.261 39.472 61.827 35.972 64.778 31.672 68.111 31.205 68.478 30.872 68.761 30.672 68.962 30.372 69.262 30.339 69.578 30.571 69.911 30.872 70.345 31.038 71.012 31.071 71.911 31.138 72.944 31.238 73.678 31.372 74.111 31.938 73.911 32.755 73.394 33.821 72.561 34.855 71.761 35.788 71.245 36.622 71.011 36.222 71.711 35.688 72.427 35.021 73.16 34.188 73.994 33.671 74.56 33.471 74.86 32.671 75.593 32.105 76.16 31.771 76.56 31.171 77.293 31.021 78.16 31.321 79.16 32.122 78.761 33.455 77.86 35.321 76.461 36.888 75.294 38.205 74.511 39.271 74.11 37.971 75.744 35.804 77.794 32.771 80.26 29.671 82.86 27.504 84.876 26.271 86.31 27.471 87.11 28.588 87.426 29.622 87.26 30.589 87.159 31.639 86.593 32.771 85.56 34.171 84.327 35.905 82.91 37.971 81.31 39.138 80.41 40.938 79.043 43.371 77.21 43.504 77.109 43.737 76.909 44.07 76.609 44.437 76.476 44.77 76.609 45.07 77.009 44.871 77.442 44.537 77.859 44.07 78.259 43.504 78.692 43.088 79.009 42.82 79.209L34.421 86.259C33.987 86.592 33.688 86.859 33.521 87.059 33.221 87.459 33.221 87.842 33.521 88.209 34.221 89.075 35.088 89.358 36.122 89.059 36.255 88.993 36.722 88.642 37.521 88.009 37.622 87.908 39.171 86.726 42.171 84.459 44.037 83.025 45.621 81.892 46.921 81.059 48.32 80.125 48.954 78.625 48.82 76.559 48.72 75.326 47.987 74.159 46.621 73.059L43.82 71.009C43.02 70.408 42.621 69.925 42.621 69.559 42.621 69.159 42.987 68.642 43.721 68.009 44.454 67.309 45.638 66.342 47.271 65.109 48.438 64.009 49.271 63.175 49.771 62.609 50.504 61.675 50.821 60.859 50.721 60.159 50.688 59.526 50.204 58.826 49.271 58.059 48.771 57.692 47.471 56.909 45.372 55.709 43.538 54.642 42.321 53.542 41.722 52.408 40.889 50.975 41.156 49.792 42.522 48.858 45.255 47.191 47.706 45.542 49.873 43.908 50.606 43.408 51.706 42.641 53.173 41.608 54.406 40.608 55.322 39.525 55.923 38.358 54.09 37.625 52.39 37.108 50.822 36.808 45.989 35.975 41.772 36.075 38.173 37.108 37.306 37.308 36.789 37.209 36.623 36.808 36.39 36.374 36.439 36.058 36.772 35.858 36.873 35.758 37.172 35.625 37.672 35.459 43.738 33.492 50.538 33.959 58.071 36.858 58.598 37.06 58.881 37.46 58.914 38.06M85.714 35.159C85.648 37.826 85.581 39.409 85.514 39.909 85.281 42.21 85.348 46.076 85.714 51.51 85.78 52.243 85.814 52.643 85.814 52.71 85.748 53.143 85.481 53.376 85.014 53.409 83.981 53.476 83.464 52.843 83.464 51.51L83.514 43.21C83.381 41.109 83.631 36.71 84.264 30.01 84.365 29.01 84.731 28.543 85.365 28.61 86.365 28.643 86.715 29.26 86.415 30.461 86.047 31.692 85.813 33.26 85.714 35.159M85.864 61.26C85.93 62.06 85.93 62.576 85.864 62.81 85.597 64.01 85.081 64.56 84.313 64.46 83.447 64.359 83.18 63.56 83.513 62.06 83.68 60.693 83.83 59.81 83.963 59.41 84.163 58.477 84.68 58.11 85.513 58.31 86.213 58.51 86.413 58.977 86.114 59.71 85.947 60.109 85.864 60.626 85.864 61.26M61.164 58.96C62.23 59.227 63.848 59.376 66.014 59.409 68.181 59.476 69.814 59.626 70.914 59.859 68.181 61.425 64.797 61.793 60.764 60.96 60.031 60.859 59.781 60.426 60.014 59.659 60.313 59.06 60.697 58.826 61.164 58.96M59.313 71.76H65.213C63.98 72.993 61.98 73.61 59.213 73.61 58.58 73.61 58.313 73.294 58.413 72.66 58.414 72.06 58.714 71.76 59.313 71.76M69.514 93.56C69.514 93.16 69.731 93.01 70.164 93.11 74.397 93.31 78.081 91.244 81.214 86.91L82.414 84.761C82.813 84.028 83.28 83.778 83.813 84.011 84.614 84.41 84.763 85.028 84.263 85.861 83.23 87.495 82.413 88.628 81.813 89.261 78.98 92.528 75.813 94.444 72.313 95.011H70.664C70.264 94.91 69.947 94.744 69.714 94.511S69.414 93.96 69.514 93.56M37.964 14.409C37.364 12.776 36.064 12.01 34.064 12.109 32.832 12.175 31.865 12.46 31.165 12.96 30.531 13.393 30.015 14.176 29.615 15.31 30.014 15.244 30.681 14.876 31.615 14.21 32.448 13.609 33.215 13.409 33.915 13.609 33.448 14.442 32.015 15.826 29.615 17.759 27.648 19.259 26.582 20.976 26.415 22.908 27.314 22.475 28.898 21.408 31.165 19.709 33.099 18.309 34.765 17.375 36.165 16.908 35.965 17.509 35.432 18.259 34.564 19.158 33.931 19.725 32.598 20.775 30.564 22.308 28.898 23.641 27.615 24.775 26.714 25.708 26.181 26.308 25.864 26.808 25.764 27.208 25.564 27.774 25.664 28.407 26.064 29.107 32.598 24.374 36.415 21.673 37.514 21.007 38.781 20.107 39.247 18.923 38.914 17.457zM18.214 20.01C18.481 18.743 19.098 16.977 20.064 14.71 20.231 14.376 20.481 14.159 20.814 14.06 21.181 13.96 21.531 14.01 21.865 14.21 22.165 14.343 22.314 14.56 22.314 14.859 22.314 14.993 22.264 15.293 22.165 15.759 21.698 16.825 21.382 17.625 21.215 18.158 20.815 19.158 20.582 20.025 20.515 20.759 20.415 21.959 19.899 22.425 18.965 22.158 18.565 22.058 18.315 21.808 18.215 21.408 18.181 21.176 18.181 20.71 18.214 20.01M17.214 28.06C17.814 28.327 18.014 28.86 17.814 29.66 17.248 32.094 17.148 34.877 17.514 38.011 17.747 40.811 17.948 42.927 18.115 44.361 18.382 46.761 18.865 48.795 19.564 50.462 20.064 51.661 19.748 52.411 18.615 52.712 17.715 53.045 17.115 52.528 16.814 51.161 16.381 48.928 15.998 46.311 15.665 43.311 15.465 41.578 15.215 38.961 14.915 35.461 14.814 33.894 15.082 31.811 15.715 29.211 15.914 28.21 16.414 27.826 17.214 28.06M18.164 68.51L12.014 70.21C10.781 70.21 10.164 69.859 10.164 69.159 10.164 68.826 10.313 68.51 10.614 68.21 10.881 67.977 11.214 67.876 11.614 67.909 13.581 68.109 15.447 67.593 17.214 66.359 17.947 65.925 18.514 66.092 18.914 66.859 19.348 67.692 19.098 68.243 18.164 68.51M22.464 74.06C21.231 74.393 20.53 74.56 20.364 74.56 19.397 74.56 19.114 75.027 19.513 75.96 19.88 77.06 20.463 77.359 21.263 76.859 22.996 75.859 24.147 74.942 24.713 74.109 24.047 73.81 23.297 73.793 22.464 74.06M25.764 80.46C24.931 81.192 24.365 81.993 24.064 82.859 25.297 82.659 26.231 82.226 26.865 81.559 27.498 80.892 27.915 79.809 28.115 78.309 26.98 79.31 26.197 80.026 25.764 80.46M22.614 80.56C25.214 79.26 27.297 77.46 28.864 75.16 28.93 75.094 28.864 74.527 28.664 73.461L21.864 78.761C21.364 79.16 21.214 79.577 21.414 80.011 21.813 80.51 22.214 80.692 22.614 80.56M19.514 86.909A14.4 14.4 0 0 1 21.264 88.659C21.664 89.059 21.731 89.476 21.464 89.909 21.098 90.409 20.831 90.642 20.664 90.609 19.497 90.543 18.547 90.175 17.813 89.509 14.713 86.675 12.097 82.709 9.963 77.609 9.63 76.609 9.746 76.009 10.313 75.809 11.081 75.509 11.697 75.726 12.164 76.459 12.431 76.858 12.73 77.476 13.063 78.309 14.397 81.876 16.547 84.743 19.514 86.909" fill="#cdcdcd" data-fill-palette-color="accent"></path></g></svg></g></svg></g></svg></g><defs></defs></svg><rect width="395.52" height="161.27786160457376" fill="none" stroke="none" visibility="hidden"></rect></g></svg></g></svg>